<svg width="24" height="24" viewBox="0 0 24 24" fill="none" xmlns="http://www.w3.org/2000/svg">
<g id="&#235;&#167;&#165;&#236;&#163;&#188;">
<path id="Vector" d="M9 10V17" stroke="black" stroke-width="2" stroke-linecap="round" stroke-linejoin="round"/>
<path id="Vector_2" d="M13 10V17" stroke="black" stroke-width="2" stroke-linecap="round" stroke-linejoin="round"/>
<path id="Vector_3" d="M4 7C4 4.23854 6.43736 2 9.44444 2C11.0574 2 12.506 2.64375 13.5025 3.66667H14.8889C15.714 3.66667 16.5053 4.01786 17.0888 4.64298C17.6722 5.2681 18 6.11594 18 7" stroke="black" stroke-width="2" stroke-linecap="round" stroke-linejoin="round"/>
<path id="Vector_4" d="M4 7H18V19.2778C18 19.4693 17.9181 19.653 17.7722 19.7885C17.6263 19.9239 17.4285 20 17.2222 20H4.77778C4.5715 20 4.37367 19.9239 4.22781 19.7885C4.08194 19.653 4 19.4693 4 19.2778V7Z" stroke="black" stroke-width="2" stroke-linecap="round" stroke-linejoin="round"/>
<path id="Vector_5" d="M18 9H20.4C20.8243 9 21.2313 9.15804 21.5314 9.43934C21.8314 9.72064 22 10.1022 22 10.5V16.5C22 16.8978 21.8314 17.2794 21.5314 17.5607C21.2313 17.842 20.8243 18 20.4 18H18" stroke="black" stroke-width="2" stroke-linecap="round" stroke-linejoin="round"/>
</g>
</svg>
