<svg width="24" height="24" viewBox="0 0 24 24" fill="none" xmlns="http://www.w3.org/2000/svg">
<g clip-path="url(#clip0_455_272)">
<path d="M21 11.9996C20.9999 10.1774 20.4467 8.39816 19.4136 6.89717C18.3804 5.39617 16.916 4.24414 15.2139 3.59342C13.5119 2.94271 11.6524 2.82397 9.88144 3.25291C8.11045 3.68185 6.51138 4.63826 5.2957 5.99565C4.08002 7.35305 3.30501 9.04748 3.07316 10.8549C2.84131 12.6622 3.16354 14.4974 3.99724 16.1177C4.83094 17.738 6.13683 19.0671 7.74221 19.9291C9.34759 20.7912 11.1768 21.1456 12.988 20.9456" stroke="black" stroke-width="2" stroke-linecap="round" stroke-linejoin="round"/>
<path d="M9 10H9.01" stroke="black" stroke-width="2" stroke-linecap="round" stroke-linejoin="round"/>
<path d="M15 10H15.01" stroke="black" stroke-width="2" stroke-linecap="round" stroke-linejoin="round"/>
<path d="M9.5 15C9.86608 15.3518 10.3026 15.6219 10.7808 15.7926C11.259 15.9632 11.7679 16.0305 12.274 15.99" stroke="black" stroke-width="2" stroke-linecap="round" stroke-linejoin="round"/>
<path d="M18.994 21.4995L21.512 18.9195C21.8245 18.5959 21.9995 18.1637 22.0002 17.7138C22.001 17.2639 21.8274 16.8312 21.516 16.5065C21.3645 16.3483 21.1826 16.2222 20.9812 16.1359C20.7799 16.0497 20.5631 16.005 20.3441 16.0045C20.125 16.004 19.9081 16.0478 19.7063 16.1332C19.5046 16.2186 19.3221 16.3439 19.17 16.5015L19.002 16.6735L18.834 16.5015C18.6824 16.3433 18.5005 16.2174 18.2991 16.1312C18.0977 16.045 17.8809 16.0004 17.6618 16C17.4428 15.9996 17.2259 16.0435 17.0242 16.129C16.8224 16.2145 16.6401 16.3398 16.488 16.4975C16.1758 16.8211 16.001 17.2531 16.0002 17.7027C15.9995 18.1524 16.1729 18.5849 16.484 18.9095L18.994 21.4995Z" stroke="black" stroke-width="2" stroke-linecap="round" stroke-linejoin="round"/>
</g>
<defs>
<clipPath id="clip0_455_272">
<rect width="24" height="24" fill="white"/>
</clipPath>
</defs>
</svg>
