<svg width="24" height="24" viewBox="0 0 24 24" fill="none" xmlns="http://www.w3.org/2000/svg">
<path d="M21.19 13.1602C21.4269 13.6956 21.5495 14.2746 21.55 14.8602C21.55 16.0006 21.0969 17.0943 20.2905 17.9007C19.4841 18.7071 18.3904 19.1602 17.25 19.1602H6.74996C6.18491 19.1615 5.62516 19.0512 5.10287 18.8355C4.58057 18.6199 4.10602 18.3032 3.70646 17.9037C3.30691 17.5041 2.99022 17.0295 2.7746 16.5073C2.55897 15.985 2.44864 15.4252 2.44996 14.8602C2.45044 14.2746 2.57305 13.6956 2.80996 13.1602" stroke="#020202" stroke-width="1.91" stroke-miterlimit="10"/>
<path d="M9.14 12.6104C6.42 12.8504 4.14 13.3204 2.81 13.1604C2 13.0804 1.5 12.7504 1.5 12.0004C1.5 10.0004 4.73 7.06035 9.14 6.11035" stroke="#020202" stroke-width="1.91" stroke-miterlimit="10"/>
<path d="M14.8601 6.11035C19.2701 7.06035 22.5001 10.0004 22.5001 12.0004C22.5001 12.7504 22.0201 13.0804 21.1901 13.1604C19.8601 13.3204 17.5801 12.8504 14.8601 12.6104" stroke="#020202" stroke-width="1.91" stroke-miterlimit="10"/>
<path d="M9.99989 4.84039H13.9999C14.22 4.84039 14.4311 4.92783 14.5868 5.08349C14.7424 5.23914 14.8299 5.45026 14.8299 5.67039V19.1604H9.13989V5.67039C9.13982 5.55882 9.16224 5.44838 9.20582 5.34567C9.24939 5.24297 9.31322 5.1501 9.3935 5.07262C9.47378 4.99514 9.56886 4.93464 9.67304 4.89474C9.77723 4.85484 9.8884 4.83635 9.99989 4.84039Z" stroke="#020202" stroke-width="1.91" stroke-miterlimit="10"/>
<path d="M18.6799 10.5702V7.7002" stroke="#020202" stroke-width="1.91" stroke-miterlimit="10"/>
<path d="M5.32007 10.5702V7.7002" stroke="#020202" stroke-width="1.91" stroke-miterlimit="10"/>
</svg>
