<svg width="100" height="100" viewBox="0 0 100 100" fill="none" xmlns="http://www.w3.org/2000/svg">
<g id="building-07">
<path id="Icon" d="M31.25 45.8333H19.1667C16.8331 45.8333 15.6663 45.8333 14.775 46.2875C13.991 46.6869 13.3536 47.3244 12.9541 48.1084C12.5 48.9997 12.5 50.1664 12.5 52.5V87.5M68.75 45.8333H80.8333C83.1669 45.8333 84.3337 45.8333 85.225 46.2875C86.009 46.6869 86.6464 47.3244 87.0459 48.1084C87.5 48.9997 87.5 50.1664 87.5 52.5V87.5M68.75 87.5V25.8333C68.75 21.1662 68.75 18.8327 67.8417 17.0501C67.0428 15.4821 65.7679 14.2072 64.1999 13.4083C62.4173 12.5 60.0838 12.5 55.4167 12.5H44.5833C39.9162 12.5 37.5827 12.5 35.8001 13.4083C34.2321 14.2072 32.9572 15.4821 32.1583 17.0501C31.25 18.8327 31.25 21.1662 31.25 25.8333V87.5M91.6667 87.5H8.33333M45.8333 29.1667H54.1667M45.8333 45.8333H54.1667M45.8333 62.5H54.1667" stroke="black" stroke-width="5" stroke-linecap="round" stroke-linejoin="round"/>
</g>
</svg>
