<svg width="24" height="24" viewBox="0 0 24 24" fill="none" xmlns="http://www.w3.org/2000/svg">
<path fill-rule="evenodd" clip-rule="evenodd" d="M4.58545 8.53147L4.58018 8.52473C4.57487 8.51793 4.56618 8.50668 4.55454 8.4913C4.53124 8.4605 4.49624 8.41331 4.45298 8.35212C4.36613 8.22931 4.2477 8.05258 4.12419 7.84084C3.86927 7.40385 3.627 6.87548 3.55398 6.38874C3.48434 5.92445 3.57507 5.59419 3.8591 5.34721C4.19362 5.05632 4.93848 4.75 6.4998 4.75H9.99977C10.414 4.75 10.7498 4.41421 10.7498 4C10.7498 3.58579 10.414 3.25 9.99977 3.25H6.4998C4.8111 3.25 3.61844 3.56868 2.87483 4.21529C2.08074 4.90581 1.95272 5.82555 2.07058 6.61126C2.18507 7.37451 2.53656 8.09615 2.82852 8.59666C2.97845 8.85367 3.12175 9.06756 3.22826 9.21819C3.23561 9.22858 3.24279 9.23869 3.2498 9.24849V18C3.2498 19.5188 4.48102 20.75 5.9998 20.75H8.9998C9.41401 20.75 9.7498 20.4142 9.7498 20C9.7498 19.5858 9.41401 19.25 8.9998 19.25H5.9998C5.30945 19.25 4.7498 18.6904 4.7498 18V9C4.7498 8.8299 4.69159 8.66438 4.58545 8.53147L4.58614 8.53233Z" fill="black"/>
<path fill-rule="evenodd" clip-rule="evenodd" d="M7.58545 8.53147L7.58018 8.52473C7.57487 8.51793 7.56618 8.50668 7.55454 8.4913C7.53124 8.4605 7.49624 8.41331 7.45298 8.35212C7.36613 8.22931 7.2477 8.05258 7.12419 7.84084C6.86927 7.40385 6.627 6.87548 6.55398 6.38874C6.48434 5.92445 6.57507 5.59419 6.8591 5.34721C7.19362 5.05632 7.93848 4.75 9.4998 4.75H12.9998C13.414 4.75 13.7498 4.41421 13.7498 4C13.7498 3.58579 13.414 3.25 12.9998 3.25H9.4998C7.8111 3.25 6.61844 3.56868 5.87483 4.21529C5.08074 4.90581 4.95272 5.82555 5.07058 6.61126C5.18507 7.37451 5.53656 8.09615 5.82852 8.59666C5.97845 8.85367 6.12175 9.06756 6.22826 9.21819C6.23561 9.22858 6.24279 9.23869 6.2498 9.24849V18C6.2498 19.5188 7.48102 20.75 8.9998 20.75H13.0352V19.25H8.9998C8.30945 19.25 7.7498 18.6904 7.7498 18V9C7.7498 8.8299 7.69159 8.66438 7.58545 8.53147L7.58614 8.53233Z" fill="black"/>
<path fill-rule="evenodd" clip-rule="evenodd" d="M19.4172 8.53147L19.4225 8.52473C19.4278 8.51793 19.4365 8.50668 19.4481 8.4913C19.4714 8.4605 19.5064 8.41331 19.5497 8.35212C19.6366 8.22931 19.755 8.05258 19.8785 7.84084C20.1334 7.40385 20.3757 6.87548 20.4487 6.38874C20.5183 5.92445 20.4276 5.59419 20.1436 5.34721C19.8091 5.05632 19.0642 4.75 17.5029 4.75H13.0029C12.5887 4.75 12.2529 4.41421 12.2529 4C12.2529 3.58579 12.5887 3.25 13.0029 3.25H17.5029C19.1916 3.25 20.3842 3.56868 21.1279 4.21529C21.9219 4.90581 22.05 5.82555 21.9321 6.61126C21.8176 7.37451 21.4661 8.09615 21.1742 8.59666C21.0242 8.85367 20.8809 9.06756 20.7744 9.21819C20.7671 9.22858 20.7599 9.23869 20.7529 9.24849V18C20.7529 19.5188 19.5217 20.75 18.0029 20.75H13.0029V19.25H18.0029C18.6932 19.25 19.2529 18.6904 19.2529 18V9C19.2529 8.8299 19.3111 8.66438 19.4172 8.53147L19.4165 8.53233Z" fill="black"/>
</svg>
