<svg width="24" height="24" viewBox="0 0 24 24" fill="none" xmlns="http://www.w3.org/2000/svg">
<g clip-path="url(#clip0_455_104)">
<path d="M6.3999 13.9102L11.6499 17.7302L12.9599 18.6802L14.2699 17.7302L19.5199 13.9102" stroke="#020202" stroke-width="1.91" stroke-miterlimit="10"/>
<path d="M14.27 17.7305H22.5V19.6405C22.5 20.399 22.1987 21.1264 21.6623 21.6628C21.126 22.1991 20.3985 22.5005 19.64 22.5005H4.36C3.98442 22.5005 3.61252 22.4265 3.26553 22.2828C2.91853 22.139 2.60325 21.9284 2.33767 21.6628C1.80132 21.1264 1.5 20.399 1.5 19.6405V17.7305H11.65" stroke="#020202" stroke-width="1.91" stroke-miterlimit="10"/>
<path d="M14.27 17.7302H19.6399C20.1457 17.7275 20.63 17.5255 20.9876 17.1678C21.3452 16.8102 21.5473 16.3259 21.5499 15.8202C21.5499 15.3136 21.3487 14.8278 20.9905 14.4696C20.6323 14.1114 20.1465 13.9102 19.6399 13.9102H4.35995C3.85339 13.9102 3.36757 14.1114 3.00938 14.4696C2.65118 14.8278 2.44995 15.3136 2.44995 15.8202C2.45258 16.3259 2.65465 16.8102 3.01228 17.1678C3.36991 17.5255 3.8542 17.7275 4.35995 17.7302H11.65" stroke="#020202" stroke-width="1.91" stroke-miterlimit="10"/>
<path d="M19.6299 10.0898H4.35995C3.30509 10.0898 2.44995 10.945 2.44995 11.9998C2.44995 13.0547 3.30509 13.9098 4.35995 13.9098H19.6299C20.6848 13.9098 21.54 13.0547 21.54 11.9998C21.54 10.945 20.6848 10.0898 19.6299 10.0898Z" stroke="#020202" stroke-width="1.91" stroke-miterlimit="10"/>
<path d="M19.6299 10.0898H4.35995C3.30509 10.0898 2.44995 10.945 2.44995 11.9998C2.44995 13.0547 3.30509 13.9098 4.35995 13.9098H19.6299C20.6848 13.9098 21.54 13.0547 21.54 11.9998C21.54 10.945 20.6848 10.0898 19.6299 10.0898Z" stroke="#020202" stroke-width="1.91" stroke-miterlimit="10"/>
<path d="M9.14 1.5H14.87C16.8945 1.50265 18.8352 2.30875 20.2658 3.74124C21.6964 5.17373 22.5 7.11548 22.5 9.14V10.14H1.5V9.14C1.5 7.11375 2.30493 5.17048 3.7377 3.7377C5.17048 2.30493 7.11375 1.5 9.14 1.5Z" stroke="#020202" stroke-width="1.91" stroke-miterlimit="10"/>
<path d="M5.32007 7.23047H7.23007" stroke="#020202" stroke-width="1.91" stroke-miterlimit="10"/>
<path d="M11.05 7.23047H12.95" stroke="#020202" stroke-width="1.91" stroke-miterlimit="10"/>
<path d="M16.77 7.23047H18.68" stroke="#020202" stroke-width="1.91" stroke-miterlimit="10"/>
<path d="M8.17993 4.36035H10.0899" stroke="#020202" stroke-width="1.91" stroke-miterlimit="10"/>
<path d="M13.9099 4.36035H15.8199" stroke="#020202" stroke-width="1.91" stroke-miterlimit="10"/>
</g>
<defs>
<clipPath id="clip0_455_104">
<rect width="24" height="24" fill="white"/>
</clipPath>
</defs>
</svg>
