<svg width="24" height="24" viewBox="0 0 24 24" fill="none" xmlns="http://www.w3.org/2000/svg">
<g clip-path="url(#clip0_455_192)">
<path fill-rule="evenodd" clip-rule="evenodd" d="M18.615 4.21185C18.7348 4.30531 18.8318 4.42485 18.8985 4.56139C18.9652 4.69794 18.9999 4.84789 19 4.99985V7.10085C19.7974 7.91363 20.3844 8.90876 20.71 9.99985H21C21.2652 9.99985 21.5196 10.1052 21.7071 10.2927C21.8946 10.4803 22 10.7346 22 10.9999V13.9999C21.9999 14.1855 21.9481 14.3675 21.8504 14.5254C21.7528 14.6833 21.6131 14.8109 21.447 14.8939L19.991 15.6229C19.4825 16.4613 18.8044 17.1841 18 17.7449V18.9999C18 19.2651 17.8946 19.5194 17.7071 19.707C17.5196 19.8945 17.2652 19.9999 17 19.9999H14C13.7348 19.9999 13.4804 19.8945 13.2929 19.707C13.1054 19.5194 13 19.2651 13 18.9999H12C12 19.2651 11.8946 19.5194 11.7071 19.707C11.5196 19.8945 11.2652 19.9999 11 19.9999H8C7.73478 19.9999 7.48043 19.8945 7.29289 19.707C7.10536 19.5194 7 19.2651 7 18.9999V17.7449C5.6729 16.82 4.70631 15.4648 4.264 13.9089C3.61681 13.7449 3.04278 13.3698 2.63272 12.8429C2.22267 12.3161 2.00002 11.6675 2 10.9999V10.4999C2 10.2346 2.10536 9.98028 2.29289 9.79275C2.48043 9.60521 2.73478 9.49985 3 9.49985C3.26522 9.49985 3.51957 9.60521 3.70711 9.79275C3.89464 9.98028 4 10.2346 4 10.4999V10.9999C3.99977 11.0918 4.01222 11.1833 4.037 11.2719C4.21699 9.5506 5.02822 7.95704 6.3141 6.79876C7.59999 5.64049 9.26936 4.99962 11 4.99985H13.877L17.757 4.02985C17.9044 3.993 18.0583 3.99023 18.207 4.02177C18.3557 4.0533 18.4952 4.11831 18.615 4.21185ZM10 17.9999C10 17.7346 10.1054 17.4803 10.2929 17.2927C10.4804 17.1052 10.7348 16.9999 11 16.9999H14C14.2652 16.9999 14.5196 17.1052 14.7071 17.2927C14.8946 17.4803 15 17.7346 15 17.9999H16V17.1969C16.0002 17.0215 16.0465 16.8493 16.1342 16.6974C16.222 16.5456 16.3481 16.4195 16.5 16.3319C17.2987 15.8692 17.9547 15.1956 18.396 14.3849C18.4937 14.2054 18.6442 14.0602 18.827 13.9689L20 13.3819V11.9999H19.917C19.6804 11.9998 19.4516 11.9159 19.271 11.763C19.0905 11.6101 18.97 11.3982 18.931 11.1649C18.7422 10.0474 18.1786 9.02741 17.333 8.27285C17.2282 8.17906 17.1444 8.06424 17.087 7.93586C17.0297 7.80749 17 7.66846 17 7.52785V6.27985L14.242 6.96985C14.1629 6.98969 14.0816 6.99976 14 6.99985H11C9.89873 6.99914 8.82803 7.36202 7.95413 8.03217C7.08024 8.70232 6.45203 9.64224 6.16706 10.706C5.88208 11.7698 5.95627 12.8978 6.37812 13.9151C6.79996 14.9324 7.54586 15.7819 8.5 16.3319C8.65187 16.4195 8.77801 16.5456 8.86577 16.6974C8.95353 16.8493 8.99982 17.0215 9 17.1969V17.9999H10ZM16 11.9999C16.2652 11.9999 16.5196 11.8945 16.7071 11.707C16.8946 11.5194 17 11.2651 17 10.9999C17 10.7346 16.8946 10.4803 16.7071 10.2927C16.5196 10.1052 16.2652 9.99985 16 9.99985C15.7348 9.99985 15.4804 10.1052 15.2929 10.2927C15.1054 10.4803 15 10.7346 15 10.9999C15 11.2651 15.1054 11.5194 15.2929 11.707C15.4804 11.8945 15.7348 11.9999 16 11.9999Z" fill="black"/>
</g>
<defs>
<clipPath id="clip0_455_192">
<rect width="24" height="24" fill="white"/>
</clipPath>
</defs>
</svg>
